<?xml version="1.0" standalone="no"?>
<!DOCTYPE svg PUBLIC "-//W3C//DTD SVG 20010904//EN"
 "http://www.w3.org/TR/2001/REC-SVG-20010904/DTD/svg10.dtd">
<svg version="1.0" xmlns="http://www.w3.org/2000/svg"
 width="1024.000000pt" height="1024.000000pt" viewBox="0 0 1024.000000 1024.000000"
 preserveAspectRatio="xMidYMid meet">
<metadata>
Created by potrace 1.14, written by Peter Selinger 2001-2017
</metadata>
<g transform="translate(0.000000,1024.000000) scale(0.100000,-0.100000)"
fill="#000000" stroke="none">
<path d="M3223 7861 c-522 -247 -1533 -1987 -1983 -3411 -39 -124 -97 -324
-105 -360 -2 -8 -14 -62 -28 -120 -14 -58 -34 -150 -46 -205 -17 -88 -24 -127
-37 -225 -1 -14 -5 -38 -8 -55 -18 -98 -24 -355 -13 -480 31 -345 176 -571
406 -639 104 -31 254 -17 370 35 201 89 432 329 640 667 255 414 529 1069 728
1737 40 136 154 560 173 648 7 31 15 55 17 53 4 -4 14 -41 28 -101 8 -33 25
-102 40 -165 17 -67 79 -291 100 -360 14 -47 27 -92 30 -100 22 -87 146 -456
199 -595 64 -167 131 -336 152 -383 13 -29 24 -54 24 -57 0 -7 63 -143 140
-300 216 -442 454 -769 685 -944 81 -61 206 -124 283 -141 376 -86 800 294
1177 1055 86 175 130 269 167 359 11 28 26 65 33 81 75 172 232 609 309 860
86 281 180 627 193 710 8 47 20 49 28 4 10 -51 88 -351 126 -484 77 -269 183
-592 249 -760 4 -11 40 -103 80 -205 409 -1047 888 -1637 1323 -1631 147 2
287 72 375 187 30 38 101 171 106 197 2 7 8 30 14 53 48 167 59 458 27 699
-15 113 -27 182 -51 305 -68 344 -206 791 -388 1260 -31 80 -63 159 -70 175
-8 17 -33 75 -56 129 -41 98 -51 120 -134 301 -53 116 -262 535 -322 645 -81
149 -246 434 -260 451 -8 8 -14 18 -14 21 0 13 -257 407 -302 463 -4 6 -40 53
-79 105 -140 185 -300 363 -385 426 -21 16 -41 31 -44 34 -16 17 -92 59 -133
75 -110 42 -227 -11 -410 -185 -110 -104 -307 -346 -446 -547 -53 -78 -211
-323 -252 -393 -28 -47 -56 -94 -62 -105 -40 -66 -77 -130 -143 -250 -18 -33
-49 -89 -69 -125 -95 -173 -364 -733 -448 -934 -29 -70 -16 -86 -122 154 -162
368 -403 838 -580 1135 -26 44 -56 95 -66 112 -61 108 -259 407 -352 533 -202
274 -388 472 -522 557 -115 73 -190 82 -292 34z"/>
</g>
</svg>
